<?xml version="1.0" encoding="UTF-8"?>
<svg version="1.1" xmlns="http://www.w3.org/2000/svg" width="138" height="141">
<path d="M0 0 C1.6875 1.5 1.6875 1.5 3 3 C3.93392578 3.42925781 3.93392578 3.42925781 4.88671875 3.8671875 C7.28165518 5.15097967 8.45478286 6.50006406 10.125 8.625 C11.56168718 10.50450961 11.56168718 10.50450961 13 12 C13.66 12 14.32 12 15 12 C15.495 13.485 15.495 13.485 16 15 C16.495 15.598125 16.99 16.19625 17.5 16.8125 C20.10644484 20.61356539 20 24.4941683 20 29 C20.66 29.33 21.32 29.66 22 30 C20.60141136 55.54264509 20.60141136 55.54264509 15.4375 60.5 C13.51406665 62.50706089 13.36531415 64.29667526 13 67 C14.98 67.33 16.96 67.66 19 68 C19 68.66 19 69.32 19 70 C19.763125 69.95875 20.52625 69.9175 21.3125 69.875 C24 70 24 70 27 72 C27.804375 72.28875 28.60875 72.5775 29.4375 72.875 C32.33993678 74.14924054 33.88571068 75.6669911 36 78 C36.66 78.66 37.32 79.32 38 80 C41.04445708 83.04445708 41.92449418 85.03841114 42.265625 89.3828125 C42.26046875 90.61773437 42.2553125 91.85265625 42.25 93.125 C42.25773437 94.98511719 42.25773437 94.98511719 42.265625 96.8828125 C42 100 42 100 40 102 C38.96254199 102.83856709 37.92059741 103.67160399 36.875 104.5 C35.92625 105.325 34.9775 106.15 34 107 C34 107.66 34 108.32 34 109 C32.515 109.495 32.515 109.495 31 110 C30.443125 110.474375 29.88625 110.94875 29.3125 111.4375 C25.56071065 113.9724928 21.26286331 114.54243573 16.875 115.4296875 C14.77996346 115.90621351 14.77996346 115.90621351 13 118 C12.67 118.66 12.34 119.32 12 120 C10.35584927 122.04394422 9.4797944 122.90192048 6.87890625 123.43359375 C5.73228516 123.43552734 5.73228516 123.43552734 4.5625 123.4375 C3.80066406 123.45683594 3.03882812 123.47617188 2.25390625 123.49609375 C-0 123 -0 123 -1.74731445 120.9934082 C-4.72365587 118.35963475 -6.36971215 118.53527759 -10.296875 118.609375 C-12.10478516 118.62871094 -12.10478516 118.62871094 -13.94921875 118.6484375 C-15.20347656 118.68195313 -16.45773438 118.71546875 -17.75 118.75 C-19.01972656 118.76804687 -20.28945312 118.78609375 -21.59765625 118.8046875 C-24.73253077 118.85182847 -27.8658856 118.91762336 -31 119 C-31 118.34 -31 117.68 -31 117 C-32.46373047 116.92652344 -32.46373047 116.92652344 -33.95703125 116.8515625 C-35.86548828 116.73941406 -35.86548828 116.73941406 -37.8125 116.625 C-39.07707031 116.55539063 -40.34164062 116.48578125 -41.64453125 116.4140625 C-45 116 -45 116 -48 114 C-50.32108669 113.29187186 -52.65377147 112.61975848 -55 112 C-55 111.34 -55 110.68 -55 110 C-55.78375 109.9175 -56.5675 109.835 -57.375 109.75 C-58.674375 109.37875 -58.674375 109.37875 -60 109 C-61.0625 107.0625 -61.0625 107.0625 -62 105 C-62.99 104.5359375 -62.99 104.5359375 -64 104.0625 C-66.78092308 102.58513461 -67.06978575 100.93375263 -68 98 C-68.33 97.01 -68.66 96.02 -69 95 C-68.75754106 92.76213183 -68.43611971 90.53224066 -68.0625 88.3125 C-67.86785156 87.13300781 -67.67320313 85.95351562 -67.47265625 84.73828125 C-67.31667969 83.83464844 -67.16070312 82.93101563 -67 82 C-65.515 81.505 -65.515 81.505 -64 81 C-63.26676204 78.98491642 -63.26676204 78.98491642 -63 77 C-61.02 76.505 -61.02 76.505 -59 76 C-59 75.34 -59 74.68 -59 74 C-57.75264433 73.3490741 -56.50198168 72.70448331 -55.25 72.0625 C-54.20585938 71.52302734 -54.20585938 71.52302734 -53.140625 70.97265625 C-51.07200013 70.03271539 -49.24037176 69.37182641 -47 69 C-46.34 69.33 -45.68 69.66 -45 70 C-45 69.34 -45 68.68 -45 68 C-40.545 67.01 -40.545 67.01 -36 66 C-36 61.40435756 -37.85651539 57.00117127 -40 53 C-40.33 52.01 -40.66 51.02 -41 50 C-40.67 49.34 -40.34 48.68 -40 48 C-40.66 47.67 -41.32 47.34 -42 47 C-41.67 46.34 -41.34 45.68 -41 45 C-41.66 44.67 -42.32 44.34 -43 44 C-43.34678112 41.46699007 -43.56448044 39.04601965 -43.6875 36.5 C-43.7280249 35.77619141 -43.7685498 35.05238281 -43.81030273 34.30664062 C-44.05845152 29.08909349 -43.83057382 24.16801489 -43 19 C-42.34 19 -41.68 19 -41 19 C-41.33 18.01 -41.66 17.02 -42 16 C-41.525625 15.566875 -41.05125 15.13375 -40.5625 14.6875 C-38.76313043 12.97690387 -38.76313043 12.97690387 -38 10 C-36.3540349 8.31288577 -34.68762851 6.6454378 -33 5 C-32.67 4.34 -32.34 3.68 -32 3 C-31.01 3 -30.02 3 -29 3 C-28.34 2.34 -27.68 1.68 -27 1 C-18.40117882 -2.84684105 -8.84284061 -3.50029107 0 0 Z M-23 20 C-23.83625088 22.18711769 -24 23.67585394 -24 26 C-24.66 26 -25.32 26 -26 26 C-26.37101826 33.72267643 -26.30676545 39.00907619 -21.1875 45.1875 C-18.63656835 47.30112908 -15.99369549 48.6029421 -13 50 C-12.67 50.33 -12.34 50.66 -12 51 C-9.66702567 51.04092937 -7.33294775 51.04241723 -5 51 C-4.67 50.34 -4.34 49.68 -4 49 C-1.9375 48.375 -1.9375 48.375 0 48 C0.12375 47.38125 0.2475 46.7625 0.375 46.125 C1 44 1 44 3 42 C2.67 41.34 2.34 40.68 2 40 C2.66 40 3.32 40 4 40 C4 37.03 4 34.06 4 31 C3.34 31 2.68 31 2 31 C1.938125 29.948125 1.87625 28.89625 1.8125 27.8125 C0.84575542 23.27623698 -0.41166833 21.85435474 -4 19 C-6.63222962 17.74563813 -6.63222962 17.74563813 -9 17 C-9.33 16.67 -9.66 16.34 -10 16 C-15.7694427 15.51921311 -18.8725746 15.49735411 -23 20 Z M-30 75 C-30.66 75.66 -31.32 76.32 -32 77 C-31.01 77.33 -30.02 77.66 -29 78 C-28.67 77.01 -28.34 76.02 -28 75 C-28.66 75 -29.32 75 -30 75 Z M-35 76 C-34.01 76.99 -33.02 77.98 -32 79 C-32.33 78.01 -32.66 77.02 -33 76 C-33.66 76 -34.32 76 -35 76 Z M6 76 C6.33 76.99 6.66 77.98 7 79 C7.7425 79.268125 8.485 79.53625 9.25 79.8125 C12.94943771 81.40998447 15.26508929 83.39508307 17 87 C17.63315653 90.77164797 17.65582886 94.23046117 17 98 C15.125 100.5 15.125 100.5 13 102 C12.34 102.99 11.68 103.98 11 105 C14.58327753 106.00217064 14.58327753 106.00217064 18 105 C18 104.34 18 103.68 18 103 C18.886875 102.71125 19.77375 102.4225 20.6875 102.125 C22.3271875 101.568125 22.3271875 101.568125 24 101 C24.9075 100.71125 25.815 100.4225 26.75 100.125 C29.44145225 98.77927388 29.8638599 97.70925715 31 95 C31.66 94.67 32.32 94.34 33 94 C33.44727555 89.90436543 33.44727555 89.90436543 30.625 87.375 C29.75875 86.59125 28.8925 85.8075 28 85 C27.34 84.34 26.68 83.68 26 83 C23.01369476 80.42559893 20.85788541 79.6429809 17 79 C15 78.33333333 13 77.66666667 11 77 C9.33911955 76.63893903 7.67381019 76.29537827 6 76 Z M-45 79 C-45.33 79.66 -45.66 80.32 -46 81 C-46.99 81 -47.98 81 -49 81 C-49.33 81.66 -49.66 82.32 -50 83 C-52.0625 83.625 -52.0625 83.625 -54 84 C-54 84.66 -54 85.32 -54 86 C-54.825 86.433125 -55.65 86.86625 -56.5 87.3125 C-59.22130556 88.73841184 -59.22130556 88.73841184 -59.5625 91.375 C-58.60502317 95.84322522 -56.13934092 98.22191352 -52.4375 100.75 C-49.96415047 102.09612484 -49.96415047 102.09612484 -47 103 C-45.65909241 103.65129797 -44.32407669 104.31513275 -43 105 C-41.95785309 100.38492226 -41.95785309 100.38492226 -43 96 C-43.63707113 90.85792584 -43.92622985 87.20159548 -40.6875 83 C-38.82812452 81.61627871 -36.92848399 80.28565599 -35 79 C-35.33 78.34 -35.66 77.68 -36 77 C-39.41761705 77 -41.82954062 77.75938546 -45 79 Z M-33 89 C-31.60624928 91.78750144 -29.83755139 91.89266287 -27 93 C-25 95 -25 95 -24 98 C-20.55254322 99.43506574 -16.80336066 99.13291045 -13.125 99.125 C-11.93132812 99.12757812 -10.73765625 99.13015625 -9.5078125 99.1328125 C-6.24652649 99.00933396 -3.20061666 98.61663257 0 98 C0 97.34 0 96.68 0 96 C1.134375 95.87625 2.26875 95.7525 3.4375 95.625 C4.613125 95.41875 5.78875 95.2125 7 95 C8.28246153 92.97740308 8.28246153 92.97740308 7.375 90.5 C6.19999066 87.84641352 6.19999066 87.84641352 3.6875 86.6875 C0.99859913 85.99964164 -1.23807537 85.84217574 -4 86 C-4.33 86.99 -4.66 87.98 -5 89 C-9.40494173 89.85950083 -13.51684592 90.40755946 -18 90 C-20.6875 88 -20.6875 88 -23 86 C-27.33094958 86 -29.27034861 86.96564469 -33 89 Z M-42 104 C-42 104.66 -42 105.32 -42 106 C-41.34 105.67 -40.68 105.34 -40 105 C-40.66 104.67 -41.32 104.34 -42 104 Z M-26 107 C-26.66 107.66 -27.32 108.32 -28 109 C-26.35 109 -24.7 109 -23 109 C-23.33 108.34 -23.66 107.68 -24 107 C-24.66 107 -25.32 107 -26 107 Z M-22 108 C-22 108.33 -22 108.66 -22 109 C-15.78675502 109.73030908 -10.15901243 110.23180249 -4 109 C-4 108.67 -4 108.34 -4 108 C-9.94 108 -15.88 108 -22 108 Z " fill="#7A95C0" transform="translate(85,11)"/>
<path d="M0 0 C0.99 0.99 0.99 0.99 2 2 C2.99 2.495 2.99 2.495 4 3 C6.5903753 5.35488663 7.87774865 6.63324596 9 10 C9.0685495 11.89470816 9.08480372 13.7916834 9.0625 15.6875 C9.05347656 16.68136719 9.04445313 17.67523438 9.03515625 18.69921875 C9.02355469 19.45847656 9.01195313 20.21773437 9 21 C8.360625 21.268125 7.72125 21.53625 7.0625 21.8125 C4.66868314 22.88667752 4.66868314 22.88667752 4 26 C2.35 26.33 0.7 26.66 -1 27 C-1.12955078 28.22976562 -1.12955078 28.22976562 -1.26171875 29.484375 C-2.42367067 38.39622642 -2.42367067 38.39622642 -5.625 41.75 C-6.40875 42.1625 -7.1925 42.575 -8 43 C-8.69311279 42.67402832 -9.38622559 42.34805664 -10.1003418 42.01220703 C-13.38650182 40.8650807 -15.92008992 40.77175441 -19.39453125 40.8046875 C-20.59658203 40.81113281 -21.79863281 40.81757813 -23.03710938 40.82421875 C-24.28298828 40.84097656 -25.52886719 40.85773438 -26.8125 40.875 C-28.07771484 40.88402344 -29.34292969 40.89304688 -30.64648438 40.90234375 C-33.76451564 40.92587606 -36.88216097 40.95875455 -40 41 C-40 40.34 -40 39.68 -40 39 C-40.97582031 38.95101562 -41.95164063 38.90203125 -42.95703125 38.8515625 C-44.22933594 38.77679688 -45.50164063 38.70203125 -46.8125 38.625 C-48.07707031 38.55539063 -49.34164062 38.48578125 -50.64453125 38.4140625 C-54 38 -54 38 -57 36 C-59.32108669 35.29187186 -61.65377147 34.61975848 -64 34 C-64 33.34 -64 32.68 -64 32 C-64.78375 31.9175 -65.5675 31.835 -66.375 31.75 C-67.24125 31.5025 -68.1075 31.255 -69 31 C-70.0625 29.0625 -70.0625 29.0625 -71 27 C-71.66 26.690625 -72.32 26.38125 -73 26.0625 C-75.78092308 24.58513461 -76.06978575 22.93375263 -77 20 C-77.33 19.01 -77.66 18.02 -78 17 C-77.66015625 14.51953125 -77.66015625 14.51953125 -77.0625 11.8125 C-76.86785156 10.91144531 -76.67320313 10.01039062 -76.47265625 9.08203125 C-76.23869141 8.05142578 -76.23869141 8.05142578 -76 7 C-74.68 6.67 -73.36 6.34 -72 6 C-72.04640625 6.66386719 -72.0928125 7.32773438 -72.140625 8.01171875 C-72.40390301 13.68541888 -72.40390301 13.68541888 -70.375 18.875 C-64.86662997 23.8035416 -60.17700169 25.78788416 -53 27 C-52.06619039 22.46859347 -52.06619039 22.46859347 -53 18 C-53.0685495 16.10529184 -53.08480372 14.2083166 -53.0625 12.3125 C-53.05347656 11.31863281 -53.04445313 10.32476562 -53.03515625 9.30078125 C-53.02355469 8.54152344 -53.01195313 7.78226562 -53 7 C-50.66785852 5.79371992 -48.50357861 4.8345262 -46 4 C-46 6.97 -46 9.94 -46 13 C-44.7625 12.773125 -43.525 12.54625 -42.25 12.3125 C-39.2742359 11.93855442 -38.30025341 11.84602389 -35.5625 13.25 C-33.64822112 15.39399235 -33 17.1176689 -33 20 C-30.06243881 20.0269501 -27.12512445 20.04681474 -24.1875 20.0625 C-23.35412109 20.07087891 -22.52074219 20.07925781 -21.66210938 20.08789062 C-20.45844727 20.09272461 -20.45844727 20.09272461 -19.23046875 20.09765625 C-18.12288208 20.10551147 -18.12288208 20.10551147 -16.99291992 20.11352539 C-14.78942591 20.07523213 -14.78942591 20.07523213 -12 19 C-10.515 19.495 -10.515 19.495 -9 20 C-9 19.34 -9 18.68 -9 18 C-7.02 17.34 -5.04 16.68 -3 16 C-3 15.01 -3 14.02 -3 13 C-3 12.34 -3 11.68 -3 11 C-4.65 10.67 -6.3 10.34 -8 10 C-8 9.34 -8 8.68 -8 8 C-9.32 8.33 -10.64 8.66 -12 9 C-9.83631 2.50893001 -7.20632663 -0.93995565 0 0 Z M-51 26 C-51 26.66 -51 27.32 -51 28 C-50.34 27.67 -49.68 27.34 -49 27 C-49.66 26.67 -50.32 26.34 -51 26 Z M-35 29 C-35.66 29.66 -36.32 30.32 -37 31 C-35.35 31 -33.7 31 -32 31 C-32.33 30.34 -32.66 29.68 -33 29 C-33.66 29 -34.32 29 -35 29 Z M-31 30 C-31 30.33 -31 30.66 -31 31 C-24.78675502 31.73030908 -19.15901243 32.23180249 -13 31 C-13 30.67 -13 30.34 -13 30 C-18.94 30 -24.88 30 -31 30 Z " fill="#C6C3C8" transform="translate(94,89)"/>
<path d="M0 0 C2.5625 0.1875 2.5625 0.1875 5.5625 1.1875 C5.5625 1.8475 5.5625 2.5075 5.5625 3.1875 C6.7071875 3.125625 6.7071875 3.125625 7.875 3.0625 C10.5625 3.1875 10.5625 3.1875 13.5625 5.1875 C14.366875 5.47625 15.17125 5.765 16 6.0625 C18.90243678 7.33674054 20.44821068 8.8544911 22.5625 11.1875 C23.2225 11.8475 23.8825 12.5075 24.5625 13.1875 C27.60695708 16.23195708 28.48699418 18.22591114 28.828125 22.5703125 C28.82296875 23.80523437 28.8178125 25.04015625 28.8125 26.3125 C28.82023437 28.17261719 28.82023437 28.17261719 28.828125 30.0703125 C28.5625 33.1875 28.5625 33.1875 26.5625 35.1875 C25.52504199 36.02606709 24.48309741 36.85910399 23.4375 37.6875 C22.48875 38.5125 21.54 39.3375 20.5625 40.1875 C20.5625 40.8475 20.5625 41.5075 20.5625 42.1875 C19.5725 42.5175 18.5825 42.8475 17.5625 43.1875 C17.005625 43.661875 16.44875 44.13625 15.875 44.625 C12.12321065 47.1599928 7.82536331 47.72993573 3.4375 48.6171875 C1.34246346 49.09371351 1.34246346 49.09371351 -0.4375 51.1875 C-0.7675 51.8475 -1.0975 52.5075 -1.4375 53.1875 C-3.14322785 55.35508647 -3.92122541 56.12062505 -6.69921875 56.48046875 C-7.49972656 56.44566406 -8.30023438 56.41085938 -9.125 56.375 C-10.33736328 56.33439453 -10.33736328 56.33439453 -11.57421875 56.29296875 C-12.18910156 56.25816406 -12.80398437 56.22335938 -13.4375 56.1875 C-12.4375 53.1875 -12.4375 53.1875 -10.453125 51.88671875 C-7.64272594 49.51748698 -7.65032064 47.58685993 -7.1875 44 C-7.03796875 42.91332031 -6.8884375 41.82664063 -6.734375 40.70703125 C-6.63640625 39.87558594 -6.5384375 39.04414062 -6.4375 38.1875 C-2.6953125 37.1171875 -2.6953125 37.1171875 -0.375 37.75 C0.264375 37.894375 0.90375 38.03875 1.5625 38.1875 C2.5525 37.5275 3.5425 36.8675 4.5625 36.1875 C6.03472763 35.56661579 7.51459119 34.96365273 9 34.375 C13.00856778 32.65053497 15.04401478 30.81411872 17.5625 27.1875 C18.2225 27.1875 18.8825 27.1875 19.5625 27.1875 C19.5625 25.8675 19.5625 24.5475 19.5625 23.1875 C18.5725 22.8575 17.5825 22.5275 16.5625 22.1875 C16.5625 21.5275 16.5625 20.8675 16.5625 20.1875 C15.5725 19.8575 14.5825 19.5275 13.5625 19.1875 C13.2325 18.5275 12.9025 17.8675 12.5625 17.1875 C11.9025 16.8575 11.2425 16.5275 10.5625 16.1875 C9.94375 15.8575 9.325 15.5275 8.6875 15.1875 C6.64676452 14.22715389 4.76131308 13.65867423 2.5625 13.1875 C2.5625 12.5275 2.5625 11.8675 2.5625 11.1875 C1.2321875 11.249375 1.2321875 11.249375 -0.125 11.3125 C-3.41027013 11.18852754 -5.49199295 10.57362096 -8.4375 9.1875 C-3.48214286 0.26785714 -3.48214286 0.26785714 0 0 Z " fill="#B9B8BC" transform="translate(98.4375,77.8125)"/>
<path d="M0 0 C-0.04640625 0.66386719 -0.0928125 1.32773438 -0.140625 2.01171875 C-0.40390301 7.68541888 -0.40390301 7.68541888 1.625 12.875 C6.31284327 17.06938609 10.21718835 19.35872109 16.3515625 20.5 C18.25395129 20.85915305 20.14439342 21.28388054 22.0234375 21.75 C34.20438505 24.70295698 46.5083686 25.08316665 59 25 C59.495 27.475 59.495 27.475 60 30 C50.18828943 31.09235744 40.44463296 31.07201196 30.58422852 30.96289062 C29.53420654 30.95451172 28.48418457 30.94613281 27.40234375 30.9375 C26.45866943 30.92589844 25.51499512 30.91429688 24.54272461 30.90234375 C22.03394773 30.89527072 22.03394773 30.89527072 19.84985352 31.62890625 C19.23940186 31.75136719 18.6289502 31.87382813 18 32 C17.01 31.34 16.02 30.68 15 30 C12.67891331 29.29187186 10.34622853 28.61975848 8 28 C8 27.34 8 26.68 8 26 C7.21625 25.9175 6.4325 25.835 5.625 25.75 C4.75875 25.5025 3.8925 25.255 3 25 C1.9375 23.0625 1.9375 23.0625 1 21 C0.34 20.690625 -0.32 20.38125 -1 20.0625 C-3.78092308 18.58513461 -4.06978575 16.93375263 -5 14 C-5.33 13.01 -5.66 12.02 -6 11 C-5.66015625 8.51953125 -5.66015625 8.51953125 -5.0625 5.8125 C-4.86785156 4.91144531 -4.67320313 4.01039062 -4.47265625 3.08203125 C-4.23869141 2.05142578 -4.23869141 2.05142578 -4 1 C-1 0 -1 0 0 0 Z " fill="#EFEAED" transform="translate(22,95)"/>
<path d="M0 0 C1.265625 1.84765625 1.265625 1.84765625 2.25 4.0625 C2.58515625 4.79597656 2.9203125 5.52945313 3.265625 6.28515625 C3.50796875 6.85105469 3.7503125 7.41695312 4 8 C0.98068916 9.32094849 -1.99258781 10.28850488 -5.1875 11.0625 C-8.77663239 11.79635875 -8.77663239 11.79635875 -11 13 C-11.66 12.67 -12.32 12.34 -13 12 C-13.33 12.99 -13.66 13.98 -14 15 C-15.99571323 15.67939174 -17.99594773 16.34561559 -20 17 C-20.66 17.99 -21.32 18.98 -22 20 C-22.66 20 -23.32 20 -24 20 C-25.42680472 22.85360944 -26.35699125 24.857628 -25.375 28 C-22.99559848 31.46094767 -20.4058767 33.64035712 -16.3125 34.6875 C-15.549375 34.790625 -14.78625 34.89375 -14 35 C-13.34 35.33 -12.68 35.66 -12 36 C-12 36.99 -12 37.98 -12 39 C-19.55125577 37.92124918 -24.57169783 35.4397785 -30 30 C-32.55885359 25.97321473 -32.15508022 22.65240647 -32 18 C-32.66 18.33 -33.32 18.66 -34 19 C-34.33 17.68 -34.66 16.36 -35 15 C-34.01 14.67 -33.02 14.34 -32 14 C-31.26676204 11.98491642 -31.26676204 11.98491642 -31 10 C-29.68 9.67 -28.36 9.34 -27 9 C-27 8.34 -27 7.68 -27 7 C-25.75264433 6.3490741 -24.50198168 5.70448331 -23.25 5.0625 C-22.55390625 4.70285156 -21.8578125 4.34320313 -21.140625 3.97265625 C-19.07200013 3.03271539 -17.24037176 2.37182641 -15 2 C-14.34 2.33 -13.68 2.66 -13 3 C-13 2.34 -13 1.68 -13 1 C-11.58622218 0.63447197 -10.16879424 0.28304505 -8.75 -0.0625 C-7.96109375 -0.25972656 -7.1721875 -0.45695312 -6.359375 -0.66015625 C-3.79641746 -1.02932397 -2.3702062 -1.04449765 0 0 Z " fill="#A6AAB1" transform="translate(53,78)"/>
<path d="M0 0 C8.3089701 1.77076412 8.3089701 1.77076412 11 5 C11.62132813 5.28617188 12.24265625 5.57234375 12.8828125 5.8671875 C15.28128068 7.15050074 16.45309907 8.49792185 18.125 10.625 C19.56168718 12.50450961 19.56168718 12.50450961 21 14 C21.66 14 22.32 14 23 14 C23.33 14.99 23.66 15.98 24 17 C24.495 17.598125 24.99 18.19625 25.5 18.8125 C28.10644484 22.61356539 28 26.4941683 28 31 C28.66 31.33 29.32 31.66 30 32 C28.60141136 57.54264509 28.60141136 57.54264509 23.4375 62.5 C21.77673235 63.94729873 21.77673235 63.94729873 21.625 66.375 C20.76297558 69.99550254 18.65798584 71.47167201 16 74 C14.7483533 76.08334635 14.7483533 76.08334635 14 78 C13 80 13 80 10.6875 81.75 C7.73672216 84.22041866 6.06104269 86.77103312 4 90 C2.375 91.875 2.375 91.875 1 93 C0.34 93 -0.32 93 -1 93 C-0.8125 91.25 -0.8125 91.25 0 89 C0.7425 88.4328125 1.485 87.865625 2.25 87.28125 C5.43447041 84.63958705 7.57690947 81.68195287 9.8125 78.25 C10.24046875 77.59966797 10.6684375 76.94933594 11.109375 76.27929688 C14.19034077 71.49328624 16.94023318 66.5824269 19.5 61.5 C19.82589111 60.85450195 20.15178223 60.20900391 20.48754883 59.54394531 C25.42542717 49.39787161 26.78087602 38.69200089 23.875 27.6875 C20.03178852 16.71720619 12.97865172 10.38847193 3 5 C3 4.34 3 3.68 3 3 C2.01 2.67 1.02 2.34 0 2 C0 1.34 0 0.68 0 0 Z " fill="#50708E" transform="translate(77,9)"/>
<path d="M0 0 C1 1 1 1 1.1875 4.75 C1.11326455 9.36084602 0.40913006 12.49368856 -2.8125 15.9375 C-3.534375 16.288125 -4.25625 16.63875 -5 17 C-5.73822998 16.69594238 -6.47645996 16.39188477 -7.23706055 16.07861328 C-10.47777219 14.81348436 -12.92317032 14.7717836 -16.39453125 14.8046875 C-17.59658203 14.81113281 -18.79863281 14.81757813 -20.03710938 14.82421875 C-21.90592773 14.84935547 -21.90592773 14.84935547 -23.8125 14.875 C-25.07771484 14.88402344 -26.34292969 14.89304688 -27.64648438 14.90234375 C-30.76451564 14.92587606 -33.88216097 14.95875455 -37 15 C-37 14.34 -37 13.68 -37 13 C-37.63808594 12.95101562 -38.27617188 12.90203125 -38.93359375 12.8515625 C-39.75988281 12.77679688 -40.58617187 12.70203125 -41.4375 12.625 C-42.26121094 12.55539063 -43.08492187 12.48578125 -43.93359375 12.4140625 C-44.61550781 12.27742188 -45.29742187 12.14078125 -46 12 C-46.33 11.34 -46.66 10.68 -47 10 C-34.46 10 -21.92 10 -9 10 C-9.495 7.03 -9.495 7.03 -10 4 C-6.62005298 0.90976272 -4.6589257 -0.64707301 0 0 Z " fill="#D4D4D7" transform="translate(91,115)"/>
<path d="M0 0 C0.99 0.66 1.98 1.32 3 2 C2.75 4.375 2.75 4.375 2 7 C0.125 8.0625 0.125 8.0625 -2 9 C-3.0260734 10.31337396 -4.02727325 11.64664105 -5 13 C-5.99 13.66 -6.98 14.32 -8 15 C-8.556875 15.495 -9.11375 15.99 -9.6875 16.5 C-13.46591162 18.95086159 -17.75634701 19.54632017 -22.125 20.4296875 C-24.22003654 20.90621351 -24.22003654 20.90621351 -26 23 C-26.33 23.66 -26.66 24.32 -27 25 C-28.70572785 27.16758647 -29.48372541 27.93312505 -32.26171875 28.29296875 C-33.06222656 28.25816406 -33.86273438 28.22335938 -34.6875 28.1875 C-35.49574219 28.16042969 -36.30398437 28.13335937 -37.13671875 28.10546875 C-37.75160156 28.07066406 -38.36648437 28.03585938 -39 28 C-38 25 -38 25 -36.015625 23.69921875 C-33.20522594 21.32998698 -33.21282064 19.39935993 -32.75 15.8125 C-32.60046875 14.72582031 -32.4509375 13.63914062 -32.296875 12.51953125 C-32.19890625 11.68808594 -32.1009375 10.85664062 -32 10 C-30.1875 9.375 -30.1875 9.375 -28 9 C-27.01 9.66 -26.02 10.32 -25 11 C-25.33 11.99 -25.66 12.98 -26 14 C-18.73832708 14.75642426 -14.78255575 13.30165732 -9 9 C-8.34515625 8.56945312 -7.6903125 8.13890625 -7.015625 7.6953125 C-3.74721973 5.52087759 -1.27108565 3.81325694 0 0 Z " fill="#8D939A" transform="translate(124,106)"/>
<path d="M0 0 C2.5625 0.1875 2.5625 0.1875 5.5625 1.1875 C5.5625 1.8475 5.5625 2.5075 5.5625 3.1875 C6.325625 3.14625 7.08875 3.105 7.875 3.0625 C10.5625 3.1875 10.5625 3.1875 13.5625 5.1875 C14.42875 5.455625 15.295 5.72375 16.1875 6 C16.97125 6.391875 17.755 6.78375 18.5625 7.1875 C19.375 9.8125 19.375 9.8125 19.5625 12.1875 C18.5725 12.1875 17.5825 12.1875 16.5625 12.1875 C16.2325 14.4975 15.9025 16.8075 15.5625 19.1875 C16.8825 19.5175 18.2025 19.8475 19.5625 20.1875 C18.5725 20.8475 17.5825 21.5075 16.5625 22.1875 C16.5625 21.5275 16.5625 20.8675 16.5625 20.1875 C15.5725 19.8575 14.5825 19.5275 13.5625 19.1875 C13.2325 18.5275 12.9025 17.8675 12.5625 17.1875 C11.9025 16.8575 11.2425 16.5275 10.5625 16.1875 C9.94375 15.8575 9.325 15.5275 8.6875 15.1875 C6.64676452 14.22715389 4.76131308 13.65867423 2.5625 13.1875 C2.5625 12.5275 2.5625 11.8675 2.5625 11.1875 C1.2321875 11.249375 1.2321875 11.249375 -0.125 11.3125 C-3.41027013 11.18852754 -5.49199295 10.57362096 -8.4375 9.1875 C-3.48214286 0.26785714 -3.48214286 0.26785714 0 0 Z " fill="#92969E" transform="translate(98.4375,77.8125)"/>
<path d="M0 0 C0.90540527 0.09087891 0.90540527 0.09087891 1.82910156 0.18359375 C17.88168499 1.82849636 17.88168499 1.82849636 34 2 C34.495 4.475 34.495 4.475 35 7 C25.18828943 8.09235744 15.44463296 8.07201196 5.58422852 7.96289062 C4.53420654 7.95451172 3.48418457 7.94613281 2.40234375 7.9375 C1.45866943 7.92589844 0.51499512 7.91429688 -0.45727539 7.90234375 C-2.96605227 7.89527072 -2.96605227 7.89527072 -5.15014648 8.62890625 C-5.76059814 8.75136719 -6.3710498 8.87382813 -7 9 C-7.99 8.34 -8.98 7.68 -10 7 C-12.32108669 6.29187186 -14.65377147 5.61975848 -17 5 C-16.67 4.01 -16.34 3.02 -16 2 C-14.22868439 2.30975468 -12.45796222 2.62290425 -10.6875 2.9375 C-9.20830078 3.19853516 -9.20830078 3.19853516 -7.69921875 3.46484375 C-5 4 -5 4 -2 5 C0.33299825 5.03954234 2.66708189 5.04401732 5 5 C3.02 4.34 1.04 3.68 -1 3 C-0.67 2.01 -0.34 1.02 0 0 Z " fill="#EAE5E9" transform="translate(47,118)"/>
<path d="M0 0 C0.66 0 1.32 0 2 0 C2 2.97 2 5.94 2 9 C2.78375 8.814375 3.5675 8.62875 4.375 8.4375 C7 8 7 8 9 9 C9.05391993 10.79133978 9.09275571 12.58313899 9.125 14.375 C9.14820313 15.37273437 9.17140625 16.37046875 9.1953125 17.3984375 C9 20 9 20 7 22 C4.3984375 22.4140625 4.3984375 22.4140625 1.375 22.625 C0.37210938 22.69976562 -0.63078125 22.77453125 -1.6640625 22.8515625 C-2.82035156 22.92503906 -2.82035156 22.92503906 -4 23 C-3.979375 22.071875 -3.95875 21.14375 -3.9375 20.1875 C-3.84230396 16.97713989 -3.84230396 16.97713989 -5 14 C-5.0685495 12.10529184 -5.08480372 10.2083166 -5.0625 8.3125 C-5.05347656 7.31863281 -5.04445312 6.32476562 -5.03515625 5.30078125 C-5.02355469 4.54152344 -5.01195312 3.78226562 -5 3 C-4.360625 2.690625 -3.72125 2.38125 -3.0625 2.0625 C-1.06389179 1.1654837 -1.06389179 1.1654837 0 0 Z " fill="#EFCC5E" transform="translate(46,93)"/>
<path d="M0 0 C0.33 0.66 0.66 1.32 1 2 C3.93756119 2.0269501 6.87487555 2.04681474 9.8125 2.0625 C10.64587891 2.07087891 11.47925781 2.07925781 12.33789062 2.08789062 C13.54155273 2.09272461 13.54155273 2.09272461 14.76953125 2.09765625 C15.50792236 2.10289307 16.24631348 2.10812988 17.00708008 2.11352539 C19.21057409 2.07523213 19.21057409 2.07523213 22 1 C24.3406065 1.27769908 26.67624308 1.60539977 29 2 C29 2.66 29 3.32 29 4 C26.53090616 5.00520421 24.05857271 5.99962639 21.578125 6.9765625 C19.7477221 7.70317698 17.93103283 8.46476833 16.125 9.25 C9.56114084 10.8253262 2.55635445 10.50375102 -4 9 C-4 7.35 -4 5.7 -4 4 C-2.68 3.34 -1.36 2.68 0 2 C0 1.34 0 0.68 0 0 Z " fill="#E8E5E9" transform="translate(60,107)"/>
<path d="M0 0 C-0.125 1.6875 -0.125 1.6875 -1 4 C-2.03125 4.70125 -3.0625 5.4025 -4.125 6.125 C-5.81907914 7.31386675 -5.81907914 7.31386675 -7 9 C-7.50398504 13.99920646 -6.55972311 18.67526926 -4 23 C-0.75259876 26.07186604 1.58594368 27.4035059 6 28 C6.66 28.33 7.32 28.66 8 29 C8 29.99 8 30.98 8 32 C0.44874423 30.92124918 -4.57169783 28.4397785 -10 23 C-12.55885359 18.97321473 -12.15508022 15.65240647 -12 11 C-12.99 11.495 -12.99 11.495 -14 12 C-14.33 10.68 -14.66 9.36 -15 8 C-14.01 7.67 -13.02 7.34 -12 7 C-11.26676204 4.98491642 -11.26676204 4.98491642 -11 3 C-9.68 2.67 -8.36 2.34 -7 2 C-7 1.34 -7 0.68 -7 0 C-4.3333581 -1.33332095 -2.83319697 -0.67102033 0 0 Z " fill="#C5C4C8" transform="translate(33,85)"/>
<path d="M0 0 C0.99 0 1.98 0 3 0 C3.78375 -0.144375 4.5675 -0.28875 5.375 -0.4375 C8 0 8 0 9.43359375 1.55859375 C10.69618212 3.33623233 11.87909377 5.13023301 13 7 C12.67 7.66 12.34 8.32 12 9 C10.68 9 9.36 9 8 9 C7.67 9.66 7.34 10.32 7 11 C0.76923077 14 0.76923077 14 -3 14 C-2.98839844 13.37351562 -2.97679687 12.74703125 -2.96484375 12.1015625 C-2.95582031 11.28429687 -2.94679687 10.46703125 -2.9375 9.625 C-2.92009766 8.40683594 -2.92009766 8.40683594 -2.90234375 7.1640625 C-2.85533666 4.95062858 -2.85533666 4.95062858 -4 3 C-2.68 2.67 -1.36 2.34 0 2 C0 1.34 0 0.68 0 0 Z " fill="#9FA5AE" transform="translate(50,88)"/>
<path d="M0 0 C1 1 1 1 1.1875 4.75 C1.13103176 8.25730523 0.7720088 10.8989846 -1 14 C-3.125 15.8125 -3.125 15.8125 -5 17 C-6.93359375 16.3359375 -6.93359375 16.3359375 -9 15 C-10.16154222 11.35934529 -10.33097437 7.79779069 -10 4 C-7.10247942 0.33548868 -4.61775161 -0.64135439 0 0 Z " fill="#E6C25A" transform="translate(91,115)"/>
<path d="M0 0 C-0.16371094 0.54140625 -0.32742187 1.0828125 -0.49609375 1.640625 C-1.08590587 4.40222593 -1.09609308 6.92818139 -1.0625 9.75 C-1.04896484 11.22726563 -1.04896484 11.22726563 -1.03515625 12.734375 C-1.02355469 13.48203125 -1.01195313 14.2296875 -1 15 C-1.66 15.33 -2.32 15.66 -3 16 C-3.556875 16.350625 -4.11375 16.70125 -4.6875 17.0625 C-7.83939847 18.34029668 -10.63511008 18.12941884 -14 18 C-13 15 -13 15 -11.0078125 13.6953125 C-8.2091627 11.33225022 -8.28028543 9.4535841 -7.875 5.875 C-7.64393564 3.90859512 -7.36593119 1.94582457 -7 0 C-4.3333581 -1.33332095 -2.83319697 -0.67102033 0 0 Z " fill="#937D46" transform="translate(99,116)"/>
<path d="M0 0 C0.33 0.99 0.66 1.98 1 3 C1.66 3.33 2.32 3.66 3 4 C1.36704731 8.64763458 1.36704731 8.64763458 -0.5625 10.5 C-2.22326765 11.94729873 -2.22326765 11.94729873 -2.375 14.375 C-3.23702442 17.99550254 -5.34201416 19.47167201 -8 22 C-9.2516467 24.08334635 -9.2516467 24.08334635 -10 26 C-11 28 -11 28 -13.3125 29.75 C-16.26327784 32.22041866 -17.93895731 34.77103312 -20 38 C-21.625 39.875 -21.625 39.875 -23 41 C-23.66 41 -24.32 41 -25 41 C-24.8125 39.25 -24.8125 39.25 -24 37 C-23.2575 36.4328125 -22.515 35.865625 -21.75 35.28125 C-18.56534949 32.63943765 -16.42385678 29.68158162 -14.1875 26.25 C-13.76025635 25.60329346 -13.3330127 24.95658691 -12.89282227 24.2902832 C-8.29907149 17.17487463 -4.61170728 9.64776659 -1 2 C-0.67 1.34 -0.34 0.68 0 0 Z " fill="#496580" transform="translate(101,61)"/>
<path d="M0 0 C0.8971875 0.309375 0.8971875 0.309375 1.8125 0.625 C0.884375 1.0271875 0.884375 1.0271875 -0.0625 1.4375 C-2.85879582 3.0001359 -3.9385907 4.75381746 -4.8125 7.8125 C-4.93625 8.410625 -5.06 9.00875 -5.1875 9.625 C-5.8475 9.625 -6.5075 9.625 -7.1875 9.625 C-7.1875 13.255 -7.1875 16.885 -7.1875 20.625 C-6.5275 20.955 -5.8675 21.285 -5.1875 21.625 C-4.84407551 22.95576989 -4.51130126 24.28931979 -4.1875 25.625 C-3.5275 26.285 -2.8675 26.945 -2.1875 27.625 C-3.1775 28.615 -4.1675 29.605 -5.1875 30.625 C-6.00392254 29.35668307 -6.81549105 28.08524069 -7.625 26.8125 C-8.07746094 26.10480469 -8.52992187 25.39710937 -8.99609375 24.66796875 C-11.61116597 20.18376294 -12.04436072 15.67889144 -11.1875 10.625 C-5.51858577 -0.94604328 -5.51858577 -0.94604328 0 0 Z " fill="#4B6D8D" transform="translate(66.1875,27.375)"/>
<path d="M0 0 C2.5 0.3125 2.5 0.3125 5.5 2.3125 C6.36625 2.580625 7.2325 2.84875 8.125 3.125 C8.90875 3.516875 9.6925 3.90875 10.5 4.3125 C11.3125 6.9375 11.3125 6.9375 11.5 9.3125 C10.51 9.3125 9.52 9.3125 8.5 9.3125 C8.17 11.6225 7.84 13.9325 7.5 16.3125 C8.82 16.6425 10.14 16.9725 11.5 17.3125 C10.51 17.9725 9.52 18.6325 8.5 19.3125 C8.5 18.6525 8.5 17.9925 8.5 17.3125 C7.51 16.9825 6.52 16.6525 5.5 16.3125 C4.80741771 14.32132592 4.14252365 12.3203864 3.5 10.3125 C1.9587688 8.60328411 1.9587688 8.60328411 0.5 7.3125 C0.5 6.6525 0.5 5.9925 0.5 5.3125 C-1.48 4.6525 -3.46 3.9925 -5.5 3.3125 C-3.71539237 1.05825878 -2.90780894 0.36347612 0 0 Z " fill="#A9ABB2" transform="translate(106.5,80.6875)"/>
<path d="M0 0 C4.82029598 3.85623679 4.82029598 3.85623679 5.33203125 7.11328125 C5.3145776 9.07856214 5.16596091 11.04166127 5 13 C4.34 13 3.68 13 3 13 C2.938125 13.5775 2.87625 14.155 2.8125 14.75 C1.67972699 17.88690987 -0.34197595 19.09167504 -3 21 C-3.66 20.67 -4.32 20.34 -5 20 C-3.68 18.35 -2.36 16.7 -1 15 C-1.66 14.67 -2.32 14.34 -3 14 C-2.34 14 -1.68 14 -1 14 C-1 12.68 -1 11.36 -1 10 C-1.66 9.67 -2.32 9.34 -3 9 C-2.67 8.34 -2.34 7.68 -2 7 C-2.66 6.34 -3.32 5.68 -4 5 C-2.25 1.125 -2.25 1.125 0 0 Z " fill="#ECE7EA" transform="translate(119,91)"/>
<path d="M0 0 C0.66 0.66 1.32 1.32 2 2 C2.66 2.33 3.32 2.66 4 3 C3.01 4.485 3.01 4.485 2 6 C1.67 7.175625 1.34 8.35125 1 9.5625 C0 13 0 13 -2 15 C-2.33 13.68 -2.66 12.36 -3 11 C-4.65 10.67 -6.3 10.34 -8 10 C-8 9.34 -8 8.68 -8 8 C-9.32 8.33 -10.64 8.66 -12 9 C-9.83631 2.50893001 -7.20632663 -0.93995565 0 0 Z " fill="#8B97A3" transform="translate(94,89)"/>
<path d="M0 0 C1.25 2.5625 1.25 2.5625 2 5 C-1.10268097 6.03422699 -3.68306652 6.27472401 -6.9375 6.5 C-10.41124549 6.74105297 -13.64967234 7.03123055 -17 8 C-17.66 6.35 -18.32 4.7 -19 3 C-15.25 1.875 -15.25 1.875 -13 3 C-13 2.34 -13 1.68 -13 1 C-11.58622218 0.63447197 -10.16879424 0.28304505 -8.75 -0.0625 C-7.96109375 -0.25972656 -7.1721875 -0.45695312 -6.359375 -0.66015625 C-3.84818007 -1.0218681 -2.34723382 -0.94712944 0 0 Z " fill="#D0CCD0" transform="translate(53,78)"/>
<path d="M0 0 C3.29456702 1.09818901 4.45501927 1.91003854 6 5 C5 8 5 8 2 10 C1.26656572 13.06556598 1.26656572 13.06556598 1 16 C1.99 16.33 2.98 16.66 4 17 C0.77557555 18.97007169 -1.02426131 19.16624654 -4.6875 18.3125 C-5.47511719 18.14363281 -6.26273438 17.97476563 -7.07421875 17.80078125 C-7.70972656 17.53652344 -8.34523437 17.27226563 -9 17 C-9.33 16.01 -9.66 15.02 -10 14 C-7.94921875 13.77213542 -5.8984375 13.54427083 -3.84765625 13.31640625 C-1.98859771 13.18113386 -1.98859771 13.18113386 -1 12 C-0.76572222 9.98405418 -0.58663876 7.961526 -0.4375 5.9375 C-0.35371094 4.83277344 -0.26992188 3.72804688 -0.18359375 2.58984375 C-0.12300781 1.73519531 -0.06242187 0.88054687 0 0 Z " fill="#B69645" transform="translate(55,101)"/>
<path d="M0 0 C1.04976964 3.14930893 1.10131595 5.38814456 1.0625 8.6875 C1.05347656 9.68136719 1.04445313 10.67523438 1.03515625 11.69921875 C1.02355469 12.45847656 1.01195313 13.21773437 1 14 C0.360625 14.268125 -0.27875 14.53625 -0.9375 14.8125 C-3.33131686 15.88667752 -3.33131686 15.88667752 -4 19 C-8.3164922 19.76173392 -11.74433453 20.16063604 -16 19 C-15.1646875 18.6596875 -15.1646875 18.6596875 -14.3125 18.3125 C-11.80327336 17.030061 -11.80327336 17.030061 -9.5625 14.5 C-7.04936462 12.0481606 -5.30399584 11.03839869 -2 10 C-1.93941406 9.36191406 -1.87882812 8.72382812 -1.81640625 8.06640625 C-1.73261719 7.24011719 -1.64882812 6.41382812 -1.5625 5.5625 C-1.48128906 4.73878906 -1.40007812 3.91507812 -1.31640625 3.06640625 C-1 1 -1 1 0 0 Z " fill="#AAAEB3" transform="translate(102,96)"/>
<path d="M0 0 C0 0.66 0 1.32 0 2 C-2.46909384 3.00520421 -4.94142729 3.99962639 -7.421875 4.9765625 C-9.2522779 5.70317698 -11.06896717 6.46476833 -12.875 7.25 C-17.86977546 8.44874611 -22.88868454 8.14887327 -28 8 C-28 7.67 -28 7.34 -28 7 C-27.07767578 6.90912109 -27.07767578 6.90912109 -26.13671875 6.81640625 C-25.32847656 6.73261719 -24.52023438 6.64882812 -23.6875 6.5625 C-22.88699219 6.48128906 -22.08648437 6.40007812 -21.26171875 6.31640625 C-18.83912821 6.04734307 -18.83912821 6.04734307 -16 5 C-16.33 4.01 -16.66 3.02 -17 2 C-14.69 2 -12.38 2 -10 2 C-10 1.34 -10 0.68 -10 0 C-6.7169902 -1.6415049 -3.57454967 -0.51888624 0 0 Z " fill="#DCDCE1" transform="translate(89,109)"/>
<path d="M0 0 C8.3089701 1.77076412 8.3089701 1.77076412 11 5 C11.61875 5.29261719 12.2375 5.58523437 12.875 5.88671875 C16.43228298 7.75036884 18.81347179 10.67018907 21 14 C21.375 16.9375 21.375 16.9375 21 19 C20.29875 18.278125 19.5975 17.55625 18.875 16.8125 C14.0195373 11.98431518 9.00570601 8.24308125 3 5 C3 4.34 3 3.68 3 3 C2.01 2.67 1.02 2.34 0 2 C0 1.34 0 0.68 0 0 Z " fill="#6687AA" transform="translate(77,9)"/>
<path d="M0 0 C0.66 0 1.32 0 2 0 C2.36490759 5.12897894 2.56057961 8.89817111 0.1875 13.5625 C-2 16 -2 16 -5 17 C-5 12.38 -5 7.76 -5 3 C-3.68 2.34 -2.36 1.68 -1 1 C-0.67 0.67 -0.34 0.34 0 0 Z " fill="#ECE8EA" transform="translate(46,93)"/>
<path d="M0 0 C1.98 0.66 3.96 1.32 6 2 C2.39705644 5.30269826 -1.37059024 6.00540025 -6 7 C-8.39400029 7.57129552 -10.6592057 8.21973523 -13 9 C-12.67 6.69 -12.34 4.38 -12 2 C-11.21753906 1.93941406 -10.43507813 1.87882812 -9.62890625 1.81640625 C-8.61699219 1.73261719 -7.60507813 1.64882812 -6.5625 1.5625 C-5.55316406 1.48128906 -4.54382813 1.40007812 -3.50390625 1.31640625 C-1.06359221 1.26788532 -1.06359221 1.26788532 0 0 Z " fill="#9EA5AC" transform="translate(110,119)"/>
<path d="M0 0 C1 2 1 2 0.9375 5.375 C1.00685248 9.54669354 1.00685248 9.54669354 3 13 C4.83284443 14.12516085 4.83284443 14.12516085 7 15 C7.78375 15.495 8.5675 15.99 9.375 16.5 C12.17842779 18.10195874 14.9161732 19.06768027 18 20 C18 20.99 18 21.98 18 23 C10.44874423 21.92124918 5.42830217 19.4397785 0 14 C-2.02151042 10.93052866 -2.18234898 8.91953173 -1.6875 5.3125 C-1.58824219 4.52488281 -1.48898438 3.73726563 -1.38671875 2.92578125 C-1 1 -1 1 0 0 Z " fill="#EDE5E9" transform="translate(23,94)"/>
<path d="M0 0 C0.78375 0.04125 1.5675 0.0825 2.375 0.125 C2.375 1.445 2.375 2.765 2.375 4.125 C1.42625 4.393125 0.4775 4.66125 -0.5 4.9375 C-3.87767273 5.87486588 -3.87767273 5.87486588 -5.625 9.125 C-6.285 9.125 -6.945 9.125 -7.625 9.125 C-7.955 9.785 -8.285 10.445 -8.625 11.125 C-9.285 11.125 -9.945 11.125 -10.625 11.125 C-10.955 9.145 -11.285 7.165 -11.625 5.125 C-10.51125 4.67125 -9.3975 4.2175 -8.25 3.75 C-4.96425901 2.27708163 -3.46029135 0.16477578 0 0 Z " fill="#899198" transform="translate(36.625,88.875)"/>
<path d="M0 0 C9.36749815 -0.1820896 18.6587308 0.38673965 28 1 C27.67 1.66 27.34 2.32 27 3 C18.09 3 9.18 3 0 3 C0 2.01 0 1.02 0 0 Z " fill="#B8BABE" transform="translate(54,127)"/>
<path d="M0 0 C-3.8660693 4.04080689 -8.63400249 3.66324253 -13.875 3.875 C-14.76058594 3.93429688 -15.64617187 3.99359375 -16.55859375 4.0546875 C-21.87953253 4.30844315 -25.36087972 3.9549512 -30 1 C-30 0.67 -30 0.34 -30 0 C-29.29391602 0.00523682 -28.58783203 0.01047363 -27.86035156 0.01586914 C-24.65691012 0.03667413 -21.4534829 0.04967141 -18.25 0.0625 C-17.13882813 0.07087891 -16.02765625 0.07925781 -14.8828125 0.08789062 C-13.27792969 0.09272461 -13.27792969 0.09272461 -11.640625 0.09765625 C-10.65610352 0.10289307 -9.67158203 0.10812988 -8.65722656 0.11352539 C-6.04669146 0.09328036 -6.04669146 0.09328036 -3.77246094 -0.56860352 C-2 -1 -2 -1 0 0 Z " fill="#B6B6BA" transform="translate(86,116)"/>
<path d="M0 0 C1.65 0.33 3.3 0.66 5 1 C4.58578031 5.83256305 2.53586014 7.82679218 -1 11 C-1.99 10.67 -2.98 10.34 -4 10 C-2.66666667 6.66666667 -1.33333333 3.33333333 0 0 Z " fill="#E6DFE3" transform="translate(95,97)"/>
<path d="M0 0 C0.75667969 0.0825 1.51335937 0.165 2.29296875 0.25 C2.95296875 1.57 3.61296875 2.89 4.29296875 4.25 C3.36484375 4.70375 2.43671875 5.1575 1.48046875 5.625 C-1.74624514 7.1921633 -1.74624514 7.1921633 -4.70703125 9.25 C-6.89453125 8.875 -6.89453125 8.875 -8.70703125 8.25 C-7.83202308 6.90290838 -6.93112192 5.57261014 -6.01953125 4.25 C-5.52066406 3.5075 -5.02179688 2.765 -4.5078125 2 C-2.70703125 0.25 -2.70703125 0.25 0 0 Z " fill="#A8AFB9" transform="translate(98.70703125,77.75)"/>
<path d="M0 0 C0.99 0 1.98 0 3 0 C2.690625 0.598125 2.38125 1.19625 2.0625 1.8125 C0.89790296 4.08956772 0.89790296 4.08956772 0 7 C-2.0625 7.6875 -2.0625 7.6875 -4 8 C-4 8.66 -4 9.32 -4 10 C-7.05263664 10.98120464 -8.94736336 10.98120464 -12 10 C-12 9.34 -12 8.68 -12 8 C-11.07767578 7.63648437 -11.07767578 7.63648437 -10.13671875 7.265625 C-4.17253988 4.79847328 -4.17253988 4.79847328 0 0 Z " fill="#AFADAE" transform="translate(115,106)"/>
<path d="M0 0 C0.66 0.33 1.32 0.66 2 1 C1.71653722 2.91789713 1.4228972 4.83429183 1.125 6.75 C0.96257812 7.81734375 0.80015625 8.8846875 0.6328125 9.984375 C0.06776118 12.67708871 -0.63422914 14.63572439 -2 17 C-3.32 17 -4.64 17 -6 17 C-5.690625 16.46761719 -5.38125 15.93523437 -5.0625 15.38671875 C-3.38105764 11.60965522 -3.11390902 7.65359606 -2.5625 3.58203125 C-2.376875 2.72996094 -2.19125 1.87789063 -2 1 C-1.34 0.67 -0.68 0.34 0 0 Z " fill="#BB9C48" transform="translate(94,115)"/>
<path d="M0 0 C0.99 0.33 1.98 0.66 3 1 C3 3.64 3 6.28 3 9 C0.03 8.505 0.03 8.505 -3 8 C-3.33 6.35 -3.66 4.7 -4 3 C-2.1875 1.4375 -2.1875 1.4375 0 0 Z " fill="#F6D268" transform="translate(85,116)"/>
<path d="M0 0 C0.33 0 0.66 0 1 0 C1.05395478 1.62463842 1.09277195 3.24978541 1.125 4.875 C1.14820313 5.77992187 1.17140625 6.68484375 1.1953125 7.6171875 C1 10 1 10 -1 12 C-3.6015625 12.4140625 -3.6015625 12.4140625 -6.625 12.625 C-7.62789062 12.69976562 -8.63078125 12.77453125 -9.6640625 12.8515625 C-10.82035156 12.92503906 -10.82035156 12.92503906 -12 13 C-11.67 10.69 -11.34 8.38 -11 6 C-10.01 7.485 -10.01 7.485 -9 9 C-5.91634129 9.2502157 -5.91634129 9.2502157 -3 9 C-2.01 6.03 -1.02 3.06 0 0 Z " fill="#D4B458" transform="translate(54,103)"/>
<path d="M0 0 C0.33 0 0.66 0 1 0 C1 2.64 1 5.28 1 8 C0.34 8 -0.32 8 -1 8 C-1.061875 8.5775 -1.12375 9.155 -1.1875 9.75 C-2.32027301 12.88690987 -4.34197595 14.09167504 -7 16 C-7.66 15.67 -8.32 15.34 -9 15 C-7.68 13.35 -6.36 11.7 -5 10 C-5.66 9.67 -6.32 9.34 -7 9 C-6.01 8.67 -5.02 8.34 -4 8 C-2.77479736 4.99152582 -2.77479736 4.99152582 -2 2 C-1.34 2 -0.68 2 0 2 C0 1.34 0 0.68 0 0 Z " fill="#E2DCE0" transform="translate(123,96)"/>
<path d="M0 0 C2.475 0.495 2.475 0.495 5 1 C5 1.66 5 2.32 5 3 C5.99 3.33 6.98 3.66 8 4 C9.25 5.9375 9.25 5.9375 10 8 C9.67 8.66 9.34 9.32 9 10 C1 6 1 6 0 5 C-0.04063832 3.33382885 -0.042721 1.66611905 0 0 Z " fill="#89939D" transform="translate(102,85)"/>
<path d="M0 0 C1.66611905 -0.042721 3.33382885 -0.04063832 5 0 C6 1 6 1 6.1875 4.75 C6.13103176 8.25730523 5.7720088 10.8989846 4 14 C0.68965517 17 0.68965517 17 -2 17 C-1.02690252 14.82924408 -0.2724539 13.2390922 1.53125 11.65625 C3.4200861 9.52628589 3.48399034 8.12093336 3.6875 5.3125 C3.75324219 4.50425781 3.81898437 3.69601563 3.88671875 2.86328125 C3.92410156 2.24839844 3.96148437 1.63351563 4 1 C2.68 0.67 1.36 0.34 0 0 Z " fill="#D5B355" transform="translate(86,115)"/>
<path d="M0 0 C2.31 0 4.62 0 7 0 C7 0.99 7 1.98 7 3 C9.64 3.66 12.28 4.32 15 5 C15 5.33 15 5.66 15 6 C13.41705218 6.05437607 11.83355744 6.09296271 10.25 6.125 C9.36828125 6.14820312 8.4865625 6.17140625 7.578125 6.1953125 C4.85145511 5.9887466 3.27748021 5.49071432 1 4 C0.25 1.875 0.25 1.875 0 0 Z " fill="#FCF6F9" transform="translate(40,118)"/>
<path d="M0 0 C1.4783226 2.95664519 1.06032783 5.74229737 1 9 C-0.32 9 -1.64 9 -3 9 C-4.1875 6.75 -4.1875 6.75 -5 4 C-2.83783784 0 -2.83783784 0 0 0 Z " fill="#F7D266" transform="translate(49,103)"/>
<path d="M0 0 C0.66 0.99 1.32 1.98 2 3 C2.7734375 3.9590625 2.7734375 3.9590625 3.5625 4.9375 C5.00759413 7.01089592 5.55992318 8.53556981 6 11 C5.01 11.495 5.01 11.495 4 12 C1 11 1 11 -0.1875 9.3125 C-1.20201728 6.42502774 -1.20260309 4.03904628 -1 1 C-0.67 0.67 -0.34 0.34 0 0 Z " fill="#435B76" transform="translate(99,23)"/>
<path d="M0 0 C0.33 0.66 0.66 1.32 1 2 C0.39671875 2.12117188 -0.2065625 2.24234375 -0.828125 2.3671875 C-1.62734375 2.53476563 -2.4265625 2.70234375 -3.25 2.875 C-4.03890625 3.03742188 -4.8278125 3.19984375 -5.640625 3.3671875 C-7.96831144 3.99150075 -9.89031952 4.84838542 -12 6 C-12.33 4.68 -12.66 3.36 -13 2 C-8.50343896 -0.24828052 -4.92127034 -0.16682272 0 0 Z " fill="#8E949A" transform="translate(54,85)"/>
<path d="M0 0 C0.8971875 0.433125 0.8971875 0.433125 1.8125 0.875 C2.1425 1.865 2.4725 2.855 2.8125 3.875 C-1.94802962 5.84887813 -5.15238101 5.8820238 -10.1875 4.875 C-9.61 4.606875 -9.0325 4.33875 -8.4375 4.0625 C-6.12586756 2.94487129 -6.12586756 2.94487129 -4.1875 1.1875 C-2.1875 -0.125 -2.1875 -0.125 0 0 Z " fill="#919399" transform="translate(96.1875,110.125)"/>
<path d="M0 0 C0.66 0 1.32 0 2 0 C1.67 2.64 1.34 5.28 1 8 C-0.65 8.33 -2.3 8.66 -4 9 C-4.33 7.02 -4.66 5.04 -5 3 C-4.360625 2.690625 -3.72125 2.38125 -3.0625 2.0625 C-1.06389179 1.1654837 -1.06389179 1.1654837 0 0 Z " fill="#DED8DB" transform="translate(46,93)"/>
<path d="M0 0 C3.51865145 0.3015987 5.00757452 1.00605962 7.8125 3.25 C10 6 10 6 10.3125 8.8125 C10.1578125 9.8953125 10.1578125 9.8953125 10 11 C6.40365256 7.50640535 3.16548033 3.88901869 0 0 Z " fill="#5E83AA" transform="translate(88,17)"/>
<path d="M0 0 C2 1 2 1 2 1 Z M0 1 C0 1.66 0 2.32 0 3 C-0.99 3.66 -1.98 4.32 -3 5 C-3.33 5.99 -3.66 6.98 -4 8 C-7 8 -10 8 -13 8 C-12.45730469 7.66226563 -11.91460937 7.32453125 -11.35546875 6.9765625 C-10.64003906 6.53054687 -9.92460938 6.08453125 -9.1875 5.625 C-8.47980469 5.18414062 -7.77210937 4.74328125 -7.04296875 4.2890625 C-1.83030303 1 -1.83030303 1 0 1 Z " fill="#959DA3" transform="translate(120,112)"/>
<path d="M0 0 C0.66 0.33 1.32 0.66 2 1 C1.401875 1.268125 0.80375 1.53625 0.1875 1.8125 C-2.0299713 2.87296728 -2.0299713 2.87296728 -3.5 4.5625 C-6.94221535 7.86128971 -11.49649458 7.08660587 -16 7 C-16 6.67 -16 6.34 -16 6 C-15.43152344 5.81824219 -14.86304687 5.63648437 -14.27734375 5.44921875 C-10.45114968 4.2036297 -6.7235839 2.92606584 -3.0625 1.25 C-2.051875 0.8375 -1.04125 0.425 0 0 Z " fill="#C9C9CE" transform="translate(89,110)"/>
<path d="M0 0 C4.38889325 0.66498383 7.9811485 2.18757677 12 4 C11.67 4.99 11.34 5.98 11 7 C10.319375 6.71125 9.63875 6.4225 8.9375 6.125 C5.67106907 4.87402645 2.37153877 3.92552045 -1 3 C-0.67 2.01 -0.34 1.02 0 0 Z " fill="#A8A6A8" transform="translate(31,120)"/>
<path d="M0 0 C2.31 0.66 4.62 1.32 7 2 C7 2.99 7 3.98 7 5 C4.36 5.33 1.72 5.66 -1 6 C-1.042721 4.33388095 -1.04063832 2.66617115 -1 1 C-0.67 0.67 -0.34 0.34 0 0 Z " fill="#F6F3F5" transform="translate(57,110)"/>
<path d="M0 0 C3.625 0.375 3.625 0.375 7 1 C7 1.66 7 2.32 7 3 C6.34 3 5.68 3 5 3 C5 3.66 5 4.32 5 5 C2.36 5 -0.28 5 -3 5 C-2 2 -2 2 0 0 Z " fill="#D0CCCF" transform="translate(100,115)"/>
<path d="M0 0 C1.2065625 0.0309375 1.2065625 0.0309375 2.4375 0.0625 C2.4375 1.3825 2.4375 2.7025 2.4375 4.0625 C0.46003397 4.79330266 -1.54322489 5.45671747 -3.5625 6.0625 C-4.2225 5.7325 -4.8825 5.4025 -5.5625 5.0625 C-3.15007962 0.07683121 -3.15007962 0.07683121 0 0 Z " fill="#7B8086" transform="translate(36.5625,88.9375)"/>
<path d="M0 0 C2.4375 0.625 2.4375 0.625 5 2 C5.8125 5.125 5.8125 5.125 6 8 C4.35 6.68 2.7 5.36 1 4 C-1.51083114 5.25541557 -1.87125446 6.50063488 -3 9 C-4.33332095 6.3333581 -3.67102033 4.83319697 -3 2 C-2.01 2 -1.02 2 0 2 C0 1.34 0 0.68 0 0 Z " fill="#CCC9CD" transform="translate(118,88)"/>
<path d="M0 0 C1.65 0 3.3 0 5 0 C5.66 1.32 6.32 2.64 7 4 C4.03 4.66 1.06 5.32 -2 6 C-1.34 4.02 -0.68 2.04 0 0 Z " fill="#D7D3D8" transform="translate(53,88)"/>
<path d="M0 0 C0.8353125 0.37125 0.8353125 0.37125 1.6875 0.75 C0.759375 1.1521875 0.759375 1.1521875 -0.1875 1.5625 C-2.6120233 2.70556848 -2.6120233 2.70556848 -4.3125 5.75 C-4.5290625 6.801875 -4.5290625 6.801875 -4.75 7.875 C-4.935625 8.49375 -5.12125 9.1125 -5.3125 9.75 C-6.3025 10.08 -7.2925 10.41 -8.3125 10.75 C-8.07084074 6.56123944 -7.89831114 4.38330934 -5 1.25 C-2.3125 -0.25 -2.3125 -0.25 0 0 Z " fill="#445D7A" transform="translate(66.3125,27.25)"/>
<path d="M0 0 C-0.33 1.32 -0.66 2.64 -1 4 C-3.60582371 4.93065133 -4.64198224 5.14917407 -7.25 4.0625 C-7.8275 3.711875 -8.405 3.36125 -9 3 C-6.15236477 0.15236477 -3.96383452 0 0 0 Z " fill="#7F8790" transform="translate(58,95)"/>
<path d="M0 0 C1.2065625 0.0309375 1.2065625 0.0309375 2.4375 0.0625 C2.16035156 0.66578125 1.88320312 1.2690625 1.59765625 1.890625 C1.23542969 2.68984375 0.87320313 3.4890625 0.5 4.3125 C0.14035156 5.10140625 -0.21929687 5.8903125 -0.58984375 6.703125 C-1.46283279 8.82073698 -2.07588508 10.82919362 -2.5625 13.0625 C-3.2225 11.7425 -3.8825 10.4225 -4.5625 9.0625 C-3.9025 8.7325 -3.2425 8.4025 -2.5625 8.0625 C-2.8409375 6.3609375 -2.8409375 6.3609375 -3.125 4.625 C-3.3415625 2.8615625 -3.3415625 2.8615625 -3.5625 1.0625 C-2.5625 0.0625 -2.5625 0.0625 0 0 Z " fill="#8A8F97" transform="translate(95.5625,90.9375)"/>
<path d="M0 0 C2.64 0 5.28 0 8 0 C7.690625 0.721875 7.38125 1.44375 7.0625 2.1875 C6.07439461 4.80307309 5.4712246 7.25118982 5 10 C4.34 9.67 3.68 9.34 3 9 C3.0928125 7.824375 3.0928125 7.824375 3.1875 6.625 C3.125625 5.75875 3.06375 4.8925 3 4 C2.01 3.34 1.02 2.68 0 2 C0 1.34 0 0.68 0 0 Z " fill="#B3B4BA" transform="translate(108,84)"/>
<path d="M0 0 C0.33 0.99 0.66 1.98 1 3 C1.66 3.33 2.32 3.66 3 4 C2.25 6.4375 2.25 6.4375 1 9 C-1.125 9.8125 -1.125 9.8125 -3 10 C-2.25 3.375 -2.25 3.375 0 0 Z " fill="#415972" transform="translate(101,61)"/>
<path d="M0 0 C0.66 0 1.32 0 2 0 C2 3.3 2 6.6 2 10 C1.34 9.34 0.68 8.68 0 8 C-0.33 9.65 -0.66 11.3 -1 13 C-1.33 13 -1.66 13 -2 13 C-2.05447047 11.58376784 -2.09300508 10.16691809 -2.125 8.75 C-2.14820313 7.96109375 -2.17140625 7.1721875 -2.1953125 6.359375 C-1.9828378 3.79268059 -1.28654105 2.2083933 0 0 Z " fill="#4F7799" transform="translate(57,34)"/>
<path d="M0 0 C1.98 0.66 3.96 1.32 6 2 C3.42910583 4.11180592 1.36939433 5.66306057 -2 6 C-2.66 5.34 -3.32 4.68 -4 4 C-2.68 2.68 -1.36 1.36 0 0 Z " fill="#757A7E" transform="translate(110,119)"/>
<path d="M0 0 C0.99 0.495 0.99 0.495 2 1 C4.27685912 0.99135917 6.53546303 0.86951278 8.80859375 0.7421875 C11.51411144 1.0604837 12.31333824 1.92828041 14 4 C10.80588526 5.02328619 8.5784116 4.96256253 5.3125 4.25 C4.13107422 4.01023437 4.13107422 4.01023437 2.92578125 3.765625 C1.97251953 3.38664062 1.97251953 3.38664062 1 3 C0.67 2.01 0.34 1.02 0 0 Z " fill="#977534" transform="translate(45,115)"/>
<path d="M0 0 C0.33 0.99 0.66 1.98 1 3 C-5.27 3 -11.54 3 -18 3 C-15.35938316 0.35938316 -13.80411139 0.61787532 -10.125 0.375 C-9.07570313 0.30023438 -8.02640625 0.22546875 -6.9453125 0.1484375 C-4.63261485 0.03188245 -2.31563285 0 0 0 Z " fill="#AFB5BE" transform="translate(56,83)"/>
<path d="M0 0 C0.33 0.66 0.66 1.32 1 2 C1.66 2.33 2.32 2.66 3 3 C3 3.66 3 4.32 3 5 C-0.67410785 6.17571451 -4.16929183 6.07366746 -8 6 C-7.67 5.01 -7.34 4.02 -7 3 C-4.03 3.495 -4.03 3.495 -1 4 C-0.67 2.68 -0.34 1.36 0 0 Z " fill="#857138" transform="translate(93,128)"/>
<path d="M0 0 C6.75 0.875 6.75 0.875 9 2 C9 2.99 9 3.98 9 5 C4.545 4.01 4.545 4.01 0 3 C0 2.01 0 1.02 0 0 Z " fill="#B9B7B9" transform="translate(32,112)"/>
<path d="M0 0 C0.66 1.32 1.32 2.64 2 4 C0.35 4.33 -1.3 4.66 -3 5 C-3 4.34 -3 3.68 -3 3 C-4.65 2.67 -6.3 2.34 -8 2 C-4.77208445 -0.1519437 -3.71599191 -0.20086443 0 0 Z " fill="#A4ADB6" transform="translate(61,92)"/>
<path d="M0 0 C0 3 0 3 -1 5 C-3.32156597 5.40729228 -5.6568787 5.74438677 -8 6 C-8.33 5.01 -8.66 4.02 -9 3 C-6.69 3 -4.38 3 -2 3 C-2 2.34 -2 1.68 -2 1 C-1.34 0.67 -0.68 0.34 0 0 Z " fill="#D5D3D8" transform="translate(81,108)"/>
<path d="M0 0 C0.99 0.33 1.98 0.66 3 1 C3.33 2.65 3.66 4.3 4 6 C3.01 6.66 2.02 7.32 1 8 C0.01 7.67 -0.98 7.34 -2 7 C-1.67 6.21625 -1.34 5.4325 -1 4.625 C0.11866511 2.15667503 0.11866511 2.15667503 0 0 Z " fill="#EEECF0" transform="translate(93,100)"/>
<path d="M0 0 C2.625 -0.1875 2.625 -0.1875 5 0 C5.66 1.32 6.32 2.64 7 4 C4.03 3.67 1.06 3.34 -2 3 C-1.34 2.01 -0.68 1.02 0 0 Z " fill="#C2BDC0" transform="translate(96,78)"/>
<path d="M0 0 C0.66 0.33 1.32 0.66 2 1 C1.01 3.97 0.02 6.94 -1 10 C-1.33 10 -1.66 10 -2 10 C-2 7.03 -2 4.06 -2 1 C-1.34 0.67 -0.68 0.34 0 0 Z " fill="#E4BF5D" transform="translate(53,102)"/>
<path d="M0 0 C2.4375 0.8125 2.4375 0.8125 5 2 C5.33 2.99 5.66 3.98 6 5 C3.69 5.33 1.38 5.66 -1 6 C-0.67 4.02 -0.34 2.04 0 0 Z " fill="#8D8F92" transform="translate(98,122)"/>
<path d="M0 0 C0.33 0.99 0.66 1.98 1 3 C-2.05263664 3.98120464 -3.94736336 3.98120464 -7 3 C-7 2.34 -7 1.68 -7 1 C-3.375 -1.125 -3.375 -1.125 0 0 Z " fill="#ACA8A9" transform="translate(92,106)"/>
<path d="M0 0 C0.99 0.66 1.98 1.32 3 2 C3 2.66 3 3.32 3 4 C3.66 4.33 4.32 4.66 5 5 C3.02 5 1.04 5 -1 5 C-1.66 3.68 -2.32 2.36 -3 1 C-2.01 0.67 -1.02 0.34 0 0 Z " fill="#979DA3" transform="translate(96,84)"/>
<path d="M0 0 C2.475 0.99 2.475 0.99 5 2 C4.01 2.99 3.02 3.98 2 5 C0.68 4.34 -0.64 3.68 -2 3 C-1.34 2.01 -0.68 1.02 0 0 Z " fill="#728697" transform="translate(86,91)"/>
<path d="M0 0 C2.625 0.375 2.625 0.375 5 1 C3.35 2.65 1.7 4.3 0 6 C-0.66 4.68 -1.32 3.36 -2 2 C-1.34 1.34 -0.68 0.68 0 0 Z " fill="#BDB9BC" transform="translate(28,84)"/>
<path d="M0 0 C3 4 3 4 2.6875 7.25 C2.460625 8.1575 2.23375 9.065 2 10 C1.34 10 0.68 10 0 10 C0 6.7 0 3.4 0 0 Z " fill="#406383" transform="translate(56,40)"/>
<path d="M0 0 C1.98 0 3.96 0 6 0 C5.67 0.99 5.34 1.98 5 3 C3.02 3 1.04 3 -1 3 C-0.67 2.01 -0.34 1.02 0 0 Z " fill="#B3ADB3" transform="translate(88,89)"/>
<path d="M0 0 C2.475 0.99 2.475 0.99 5 2 C4 4 4 4 2.0625 4.75 C1.381875 4.8325 0.70125 4.915 0 5 C-0.66 4.34 -1.32 3.68 -2 3 C-1.34 2.01 -0.68 1.02 0 0 Z " fill="#466681" transform="translate(66,57)"/>
<path d="M0 0 C2.64 0.66 5.28 1.32 8 2 C6.625 3.5 6.625 3.5 5 5 C4.34 5 3.68 5 3 5 C3 4.34 3 3.68 3 3 C2.01 2.67 1.02 2.34 0 2 C0 1.34 0 0.68 0 0 Z " fill="#53708A" transform="translate(77,9)"/>
<path d="" fill="#000000" transform="translate(0,0)"/>
<path d="" fill="#000000" transform="translate(0,0)"/>
<path d="" fill="#000000" transform="translate(0,0)"/>
<path d="" fill="#000000" transform="translate(0,0)"/>
<path d="" fill="#000000" transform="translate(0,0)"/>
<path d="" fill="#000000" transform="translate(0,0)"/>
<path d="" fill="#000000" transform="translate(0,0)"/>
<path d="" fill="#000000" transform="translate(0,0)"/>
<path d="" fill="#000000" transform="translate(0,0)"/>
<path d="" fill="#000000" transform="translate(0,0)"/>
<path d="" fill="#000000" transform="translate(0,0)"/>
<path d="" fill="#000000" transform="translate(0,0)"/>
<path d="" fill="#000000" transform="translate(0,0)"/>
<path d="" fill="#000000" transform="translate(0,0)"/>
<path d="" fill="#000000" transform="translate(0,0)"/>
<path d="" fill="#000000" transform="translate(0,0)"/>
<path d="" fill="#000000" transform="translate(0,0)"/>
<path d="" fill="#000000" transform="translate(0,0)"/>
<path d="" fill="#000000" transform="translate(0,0)"/>
<path d="" fill="#000000" transform="translate(0,0)"/>
<path d="" fill="#000000" transform="translate(0,0)"/>
<path d="" fill="#000000" transform="translate(0,0)"/>
<path d="" fill="#000000" transform="translate(0,0)"/>
<path d="" fill="#000000" transform="translate(0,0)"/>
<path d="" fill="#000000" transform="translate(0,0)"/>
<path d="" fill="#000000" transform="translate(0,0)"/>
<path d="" fill="#000000" transform="translate(0,0)"/>
<path d="" fill="#000000" transform="translate(0,0)"/>
<path d="" fill="#000000" transform="translate(0,0)"/>
<path d="" fill="#000000" transform="translate(0,0)"/>
<path d="" fill="#000000" transform="translate(0,0)"/>
<path d="" fill="#000000" transform="translate(0,0)"/>
<path d="" fill="#000000" transform="translate(0,0)"/>
<path d="" fill="#000000" transform="translate(0,0)"/>
<path d="" fill="#000000" transform="translate(0,0)"/>
<path d="" fill="#000000" transform="translate(0,0)"/>
<path d="" fill="#000000" transform="translate(0,0)"/>
<path d="" fill="#000000" transform="translate(0,0)"/>
<path d="" fill="#000000" transform="translate(0,0)"/>
<path d="" fill="#000000" transform="translate(0,0)"/>
<path d="" fill="#000000" transform="translate(0,0)"/>
<path d="" fill="#000000" transform="translate(0,0)"/>
<path d="" fill="#000000" transform="translate(0,0)"/>
<path d="" fill="#000000" transform="translate(0,0)"/>
<path d="" fill="#000000" transform="translate(0,0)"/>
<path d="" fill="#000000" transform="translate(0,0)"/>
<path d="" fill="#000000" transform="translate(0,0)"/>
<path d="" fill="#000000" transform="translate(0,0)"/>
<path d="" fill="#000000" transform="translate(0,0)"/>
<path d="" fill="#000000" transform="translate(0,0)"/>
<path d="" fill="#000000" transform="translate(0,0)"/>
<path d="" fill="#000000" transform="translate(0,0)"/>
<path d="" fill="#000000" transform="translate(0,0)"/>
<path d="" fill="#000000" transform="translate(0,0)"/>
<path d="" fill="#000000" transform="translate(0,0)"/>
<path d="" fill="#000000" transform="translate(0,0)"/>
<path d="" fill="#000000" transform="translate(0,0)"/>
<path d="" fill="#000000" transform="translate(0,0)"/>
<path d="" fill="#000000" transform="translate(0,0)"/>
<path d="" fill="#000000" transform="translate(0,0)"/>
<path d="" fill="#000000" transform="translate(0,0)"/>
<path d="" fill="#000000" transform="translate(0,0)"/>
<path d="" fill="#000000" transform="translate(0,0)"/>
<path d="" fill="#000000" transform="translate(0,0)"/>
<path d="" fill="#000000" transform="translate(0,0)"/>
<path d="" fill="#000000" transform="translate(0,0)"/>
<path d="" fill="#000000" transform="translate(0,0)"/>
<path d="" fill="#000000" transform="translate(0,0)"/>
<path d="" fill="#000000" transform="translate(0,0)"/>
<path d="" fill="#000000" transform="translate(0,0)"/>
<path d="" fill="#000000" transform="translate(0,0)"/>
<path d="" fill="#000000" transform="translate(0,0)"/>
<path d="" fill="#000000" transform="translate(0,0)"/>
<path d="" fill="#000000" transform="translate(0,0)"/>
<path d="" fill="#000000" transform="translate(0,0)"/>
<path d="" fill="#000000" transform="translate(0,0)"/>
<path d="" fill="#000000" transform="translate(0,0)"/>
<path d="" fill="#000000" transform="translate(0,0)"/>
<path d="" fill="#000000" transform="translate(0,0)"/>
<path d="" fill="#000000" transform="translate(0,0)"/>
<path d="" fill="#000000" transform="translate(0,0)"/>
<path d="" fill="#000000" transform="translate(0,0)"/>
<path d="" fill="#000000" transform="translate(0,0)"/>
<path d="" fill="#000000" transform="translate(0,0)"/>
<path d="" fill="#000000" transform="translate(0,0)"/>
<path d="" fill="#000000" transform="translate(0,0)"/>
<path d="" fill="#000000" transform="translate(0,0)"/>
<path d="" fill="#000000" transform="translate(0,0)"/>
<path d="" fill="#000000" transform="translate(0,0)"/>
<path d="" fill="#000000" transform="translate(0,0)"/>
<path d="" fill="#000000" transform="translate(0,0)"/>
<path d="" fill="#000000" transform="translate(0,0)"/>
<path d="" fill="#000000" transform="translate(0,0)"/>
<path d="" fill="#000000" transform="translate(0,0)"/>
<path d="" fill="#000000" transform="translate(0,0)"/>
<path d="" fill="#000000" transform="translate(0,0)"/>
<path d="" fill="#000000" transform="translate(0,0)"/>
<path d="" fill="#000000" transform="translate(0,0)"/>
<path d="" fill="#000000" transform="translate(0,0)"/>
<path d="" fill="#000000" transform="translate(0,0)"/>
<path d="" fill="#000000" transform="translate(0,0)"/>
<path d="" fill="#000000" transform="translate(0,0)"/>
<path d="" fill="#000000" transform="translate(0,0)"/>
<path d="" fill="#000000" transform="translate(0,0)"/>
<path d="" fill="#000000" transform="translate(0,0)"/>
<path d="" fill="#000000" transform="translate(0,0)"/>
<path d="" fill="#000000" transform="translate(0,0)"/>
<path d="" fill="#000000" transform="translate(0,0)"/>
</svg>
